<?xml version="1.0" encoding="utf-8"?>
<!-- Generator: Adobe Illustrator 18.1.1, SVG Export Plug-In . SVG Version: 6.00 Build 0)  -->
<svg version="1.1" id="Layer_1" xmlns="http://www.w3.org/2000/svg" xmlns:xlink="http://www.w3.org/1999/xlink" x="0px" y="0px"
	 viewBox="0 0 244 40.9" enable-background="new 0 0 244 40.9" xml:space="preserve">
<g>
	<g>
		<g>
			<path fill="#333333" d="M30.4,30.3c0,5.5-3.8,9.3-10,9.3H1.6V1.4h18.9c6,0,10,3.5,10,9.2V30.3L30.4,30.3z M24.4,12.4
				c0-3.5-1.3-5.7-5.1-5.7H7.5v27.9h11.9c3.8,0,5.1-2.1,5.1-5.7V12.4z"/>
			<path fill="#333333" d="M66.2,39.6h-6.8l-8.2-15.5h-8.9v15.5h-5.9V1.4H55c6,0,10,3.3,10,8.9v4.1c0,4.6-2.2,8.6-7.9,9.2L66.2,39.6
				z M53.4,19.2c4.4,0,5.7-1.7,5.7-5.2v-2.2c0-3.5-1.6-5.1-5.2-5.1H42.5v12.5H53.4z"/>
			<path fill="#333333" d="M78.9,39.6c-6,0-9.8-3.5-9.8-9v-20c0-5.5,3.8-9.2,9.8-9.2h8.9c6,0,9.8,3.5,9.8,9.2v20c0,5.5-3.8,9-9.8,9
				L78.9,39.6L78.9,39.6z M80,6.7c-3.8,0-4.9,2.1-4.9,5.7v16.5c0,3.5,1.3,5.7,4.9,5.7h7c3.8,0,4.9-2.1,4.9-5.7V12.4
				c0-3.5-1.3-5.7-4.9-5.7L80,6.7L80,6.7z"/>
			<path fill="#333333" d="M127.1,1.4h5.5v38.2h-7.1l-16-30.9v30.9h-5.5V1.4h7.6l15.5,29.8V1.4L127.1,1.4z"/>
			<path fill="#333333" d="M139.3,1.4h26.1v5.2h-20.3v11.1h17.4V23h-17.4v11.6h20.3v5.2h-26.1V1.4z"/>
			<path fill="#333333" d="M187.6,20.1l12.8,19.5h-7.1l-10.5-16.5h-6.3v16.5h-5.9V1.4h5.9v16.3h6.2l10.8-16.3h7L187.6,20.1z"/>
			<path fill="#333333" d="M203.9,1.4h5.9v38.2h-5.9V1.4z"/>
			<path fill="#333333" d="M225,6.7h-11.4V1.4h28.8v5.2H231v33h-6V6.7L225,6.7z"/>
		</g>
	</g>
</g>
</svg>
